<svg xmlns="http://www.w3.org/2000/svg" viewBox="0 0 800 600">
  <defs>
    <linearGradient id="gradient1" x1="0%" y1="0%" x2="100%" y2="100%">
      <stop offset="0%" stop-color="#4f6fef"/>
      <stop offset="100%" stop-color="#6a11cb"/>
    </linearGradient>
    <linearGradient id="gradient2" x1="0%" y1="0%" x2="100%" y2="100%">
      <stop offset="0%" stop-color="#2575fc"/>
      <stop offset="100%" stop-color="#4f6fef"/>
    </linearGradient>
  </defs>
  <rect width="800" height="600" fill="white"/>
  <g transform="translate(400, 300)">
    <g transform="scale(0.8)">
      <rect x="-80" y="-100" width="160" height="200" rx="20" fill="url(#gradient1)" opacity="0.8"/>
      <rect x="-60" y="-120" width="120" height="40" rx="10" fill="url(#gradient2)" opacity="0.9"/>
      <circle cx="-40" cy="-90" r="8" fill="white"/>
      <circle cx="40" cy="-90" r="8" fill="white"/>
      <rect x="-30" y="-70" width="60" height="10" rx="5" fill="white" opacity="0.7"/>
      <rect x="-90" y="50" width="40" height="100" rx="10" fill="url(#gradient1)" opacity="0.8"/>
      <rect x="50" y="50" width="40" height="100" rx="10" fill="url(#gradient1)" opacity="0.8"/>
      <rect x="-20" y="150" width="40" height="60" rx="10" fill="url(#gradient2)" opacity="0.9"/>
      <circle cx="-100" cy="40" r="15" fill="url(#gradient2)" opacity="0.9"/>
      <circle cx="100" cy="40" r="15" fill="url(#gradient2)" opacity="0.9"/>
      <circle cx="-100" cy="120" r="15" fill="url(#gradient2)" opacity="0.9"/>
      <circle cx="100" cy="120" r="15" fill="url(#gradient2)" opacity="0.9"/>
      <circle cx="0" cy="-140" r="25" fill="url(#gradient1)" opacity="0.9"/>
      <circle cx="-15" cy="-140" r="5" fill="white"/>
      <circle cx="15" cy="-140" r="5" fill="white"/>
      <path d="M -15 -135 L -5 -125 M 15 -135 L 5 -125" stroke="white" stroke-width="2" fill="none"/>
    </g>
  </g>
</svg>