<svg xmlns="http://www.w3.org/2000/svg" viewBox="0 0 800 600">
  <defs>
    <linearGradient id="gradient1" x1="0%" y1="0%" x2="100%" y2="100%">
      <stop offset="0%" stop-color="#6a11cb"/>
      <stop offset="100%" stop-color="#2575fc"/>
    </linearGradient>
    <linearGradient id="gradient2" x1="0%" y1="0%" x2="100%" y2="100%">
      <stop offset="0%" stop-color="#4f6fef"/>
      <stop offset="100%" stop-color="#6a11cb"/>
    </linearGradient>
  </defs>
  <rect width="800" height="600" fill="white"/>
  <g transform="translate(400, 300)">
    <g transform="scale(0.8)">
      <rect x="-60" y="-120" width="120" height="160" rx="25" fill="url(#gradient1)" opacity="0.85"/>
      <circle cx="-30" cy="-90" r="12" fill="white"/>
      <circle cx="30" cy="-90" r="12" fill="white"/>
      <rect x="-25" y="-70" width="50" height="15" rx="7" fill="white" opacity="0.8"/>
      <rect x="-80" y="60" width="35" height="120" rx="15" fill="url(#gradient2)" opacity="0.8"/>
      <rect x="45" y="60" width="35" height="120" rx="15" fill="url(#gradient2)" opacity="0.8"/>
      <rect x="-20" y="180" width="40" height="50" rx="12" fill="url(#gradient1)" opacity="0.9"/>
      <circle cx="-90" cy="50" r="18" fill="url(#gradient2)" opacity="0.9"/>
      <circle cx="90" cy="50" r="18" fill="url(#gradient2)" opacity="0.9"/>
      <circle cx="-90" cy="130" r="18" fill="url(#gradient2)" opacity="0.9"/>
      <circle cx="90" cy="130" r="18" fill="url(#gradient2)" opacity="0.9"/>
      <circle cx="0" cy="-150" r="30" fill="url(#gradient1)" opacity="0.9"/>
      <circle cx="-18" cy="-155" r="6" fill="white"/>
      <circle cx="18" cy="-155" r="6" fill="white"/>
      <path d="M -12 -145 Q 0 -135 12 -145" stroke="white" stroke-width="3" fill="none"/>
      <rect x="-45" y="-30" width="90" height="8" rx="4" fill="white" opacity="0.6"/>
      <rect x="-50" y="0" width="100" height="10" rx="5" fill="url(#gradient2)" opacity="0.7"/>
    </g>
  </g>
</svg>